<?xml version="1.0" encoding="UTF-8"?>
<svg id="Layer_1" xmlns="http://www.w3.org/2000/svg" version="1.1" viewBox="0 0 960 960">
  <!-- Generator: Adobe Illustrator 29.6.1, SVG Export Plug-In . SVG Version: 2.1.1 Build 9)  -->
  <defs>
    <style>
      .st0 {
        fill: #fff;
      }
    </style>
  </defs>
  <path class="st0" d="M0,529V0h960v530L0,529ZM265,263.01c-.17,3.29,4.33,4.01,6.79,4.7,9.41,2.63,50.75,9.89,58.5,8.09,1.82-.42,2.98-2.16,4.45-2.56,1.1-.3,20.96-.4,22.68-.14,3.05.45,4.88,2.44,7.14,2.85,5.82,1.06,43.56-5.49,51.67-7.21,3.08-.66,15.03-3.92,7.22-6.67-4.95-1.74-24.57-2.82-30.91-3.09-13.15-.57-27.79,1.54-40.09,1.1-2.32-.08-3.48-1.98-4.94-2.03s-3.58,1.86-6.02,2.04c-2.76.21-5.25-1.09-7.95-1.12-15.94-.17-33.24-.5-49.03,1.05-6.53.64-13,2.24-19.51,3ZM611.76,258.16c-12.96,2.35-27.56.1-41.3.8l-35.49,3.51-.5,2.56c1.37,1.34,3.15,1.61,4.89,2.11,8.15,2.35,51.88,10.21,57.91,8.62,9.41-2.49,15.74-3.89,26.3-2.82,4.4.45,4.41,2.55,6.95,3.05,8.67,1.7,44.24-5.01,54.69-7.28,1.92-.42,8.24-1.59,8.77-3.23.29-1.6.02-2.74-1.66-3.28-3.82-1.21-13.29-1.79-17.82-2.18-18.47-1.61-36.9.81-54.98.06-2.93-.12-4.54-2.5-7.75-1.92ZM508.72,281.29c-1.49-1.24-3.37-1.17-5.18-1.33-15.85-1.36-33.78.93-49.85.23-4.5,2.21-8.54,16.13-12.18,16.82l-76.52-1.49c-1.07-2.59-4.86-8.21-5.54-10.46-.79-2.61.27-5.39-1.42-7.58-2.21-2.27-18.43-2.02-21.28-.48-3.29,1.77-.57,12.48-2.71,16.3-.72,1.29-3.33.48-3.91,2.31l-.16,12.73,6.84,2.36,98.46,15.29c2.39,1.31,9.38,22.19,12.55,26.7,4.24,6.04,9.52,3.86,16.07,4.43.87,1.67.71,5.04,2.77,5.73,1.51.51,22.65.54,24.84.11,4.12-.81,2.96-5.12,5.15-5.85,3.94-1.32,9.81.87,13.94-3.06,4.78-4.54,11.09-26.28,14.13-27.87l98.51-15.49,6.84-2.36.02-13.74-3.95-2.22-1.26-13.74c-.55-1.75-8.97-2.59-11.31-2.68-3.09-.13-6.56-.26-9.55.53-2.47,1.23-1.73,4.92-2.75,7.25-.73,1.66-2.73,2.83-3.48,4.52-.79,1.8-.92,7.43-2.43,7.78l-77.67,1c-.88-.21-6.48-13.7-8.95-15.75Z"/>
  <path d="M960,530v430H0v-431l960,1ZM258.5,737c-6.31,1.32-16.69-.97-23.5,0-1.57,2.22.11,16.22,1.14,16.86,5.1,1.19,18.81-1.52,22.42,1.07,5.35,3.84,3.64,18.06,2.42,24.05,5.56.38,13.14,2.9,18.01-.49v-21c0-.41,3.98-3.5,4.5-3.5h22.5v-17h-23.5c-.36,0-1.62-1.02-2.34-1.17.38-7.71-1.96-16.93,1.84-23.82-3.92-.92-17.95-4.09-20-.27-2.97,5.53,2.09,16.87-.5,23.26-.28.46-2.5,1.9-3,2ZM454,772h31.5c4.86,0,13.92-7.11,16.91-11.09,14.61-19.39,3.19-50.91-22.91-50.91h-24l-1.5,1.5v60.5ZM563,711v61h10.01c.16-3.8-.26-7.68,0-11.49.94-13.63,2.58-33.7,1.04-47.06-.16-1.39.05-2.77-1.69-3.31l-9.36.86ZM593.01,709.99l-10.07.44-.83,9.46,10.9.11v-10.01ZM259,713.01c-8.97.5-16.25,8.85-20,16.47l3.02,1.04c.64-3.46,19.45-15.23,16.98-17.51ZM297.01,730c4.18.45,5.02-2.24,3.04-5.56-1.13-1.9-14.81-11.67-16.05-10.44.82,8.15,13.38,7.09,13.01,16ZM365,755c3.46-18.77-15.16-35.93-32.69-25.2-22.27,13.64-9.93,49.69,17.7,43.7,11.06-2.4,18.39-16.23,4.51-13.49-2.77.55-3.8,3.69-6.46,4.53-7.81,2.45-14.79-2.48-15.05-10.54l32,1ZM372,729.5v42.5l10.56-.94c1.93-12.01-4.8-36.9,15.43-32.07l.03-11.42c-6.59-2.68-10.53,2.17-14.52,6.4l-2.16-5.88h-7.66s-1.68,1.4-1.68,1.4ZM440.64,733.36c-19.26-18.92-52.91,4.83-36.84,30.34,17.86,28.35,62.17-5.46,36.84-30.34ZM524,754.01l31.03.57c4.2-12.29-4.64-26.01-17.64-27.46-27.12-3.02-34.66,35.24-12.08,45.07,10.59,4.61,27.51,1.03,28.68-12.18-10.84-4.1-10.89,7.37-22.29,4.78-5.08-1.16-7.64-5.79-7.71-10.78ZM687,754c3.45-37.19-48.96-35.01-43.91,1.41,2.32,16.71,24.68,24.67,37.38,13.56,3.2-2.8,4.27-4.29,3.47-8.91-9.19-3.18-11.3,7.14-20.97,4.47-4.31-1.19-8.75-5.9-8.97-10.52h33ZM694,729.5v42.5l9.56-.94c2.69-12.81-4.24-34.39,15.5-33.5l.94-10.57c-6.48-.23-11.57,1.92-15.5,7l-.49-6c-2.29.24-9.24-.96-10.01,1.51ZM593,728c-3.57.45-8.36-1.35-11,1.5v42.5l9.38.06c.44-.12,1.62-3.29,1.62-3.56v-40.5ZM619.01,759.99l-10.52-31.06c-2.09.08-10.3-1.34-10.47.56l14.53,40.45c1.57,2.77,7.07,2.48,10,2.11.84-.11,1.7,0,2.45-.54l16.99-42.5c-3.34,1.06-9.34-2.36-11.53-.04l-11.46,31.02ZM257.99,777.99c.47-2.57-.95-3.47-2.46-5.03-2.08-2.15-8.78-8.31-11.05-9.95-1.35-.97-2.64-2.25-4.48-2.01-2.71,5.88,15.75,19.16,17.99,16.99ZM301.99,761c-.7-.76-4.03,1.95-4.9,2.59-2.19,1.62-15.71,11.65-13.09,14.4,3.86-.23,21.06-13.64,17.99-16.99Z"/>
  <path d="M508.72,281.29c2.47,2.05,8.07,15.54,8.95,15.75l77.67-1c1.5-.35,1.63-5.98,2.43-7.78.75-1.69,2.75-2.86,3.48-4.52,1.02-2.33.28-6.02,2.75-7.25,2.99-.79,6.47-.66,9.55-.53,2.34.1,10.76.94,11.31,2.68l1.26,13.74,3.95,2.22-.02,13.74-6.84,2.36-98.51,15.49c-3.04,1.59-9.35,23.33-14.13,27.87-4.13,3.93-10,1.74-13.94,3.06-2.19.73-1.03,5.04-5.15,5.85-2.19.43-23.33.4-24.84-.11-2.06-.7-1.9-4.06-2.77-5.73-6.54-.57-11.83,1.61-16.07-4.43-3.17-4.51-10.16-25.4-12.55-26.7l-98.46-15.29-6.84-2.36.16-12.73c.58-1.83,3.19-1.03,3.91-2.31,2.15-3.82-.58-14.53,2.71-16.3,2.86-1.54,19.07-1.79,21.28.48,1.69,2.19.63,4.97,1.42,7.58.68,2.25,4.47,7.87,5.54,10.46l76.52,1.49c3.65-.69,7.68-14.6,12.18-16.82,16.07.7,34-1.58,49.85-.23,1.81.15,3.68.09,5.18,1.33ZM458.71,285.21c-5.71,1.28-12.17,18.82-12.7,24.3-.27,2.77-.83,9.62,1.98,10.99.86.42,13.99,1.42,16.46,1.54,10.26.48,23.91.65,34.08,0,3.42-.22,13.64-1.09,15.37-3.62,4.01-5.84-5.07-27.45-9.91-32.93l-45.29-.28ZM502.72,328.15c-4.94,1.36-7.38,10.38-.76,12.42,12.36,3.81,10.31-15.04.76-12.42ZM461.79,339.78c.34-.47,1.21-5.35,1.16-6.23-.4-6.59-10.49-5.87-12.44-1.52-3.69,8.22,8.73,11.32,11.28,7.75ZM478.73,334.24c-1.59.29-4.51,1.25-5.25,2.74-5.05,12.45,13.21,14.9,15.29,4.28,1.52-7.74-3.71-8.17-10.05-7.02Z"/>
  <path d="M265,263.01c6.5-.75,12.98-2.35,19.51-3,15.79-1.55,33.1-1.22,49.03-1.05,2.7.03,5.19,1.32,7.95,1.12,2.44-.18,4.52-2.1,6.02-2.04s2.63,1.95,4.94,2.03c12.3.44,26.94-1.67,40.09-1.1,6.33.27,25.96,1.35,30.91,3.09,7.81,2.75-4.14,6.02-7.22,6.67-8.11,1.73-45.85,8.28-51.67,7.21-2.25-.41-4.09-2.4-7.14-2.85-1.72-.25-21.57-.16-22.68.14-1.46.4-2.62,2.14-4.45,2.56-7.76,1.8-49.1-5.46-58.5-8.09-2.46-.69-6.96-1.41-6.79-4.7Z"/>
  <path d="M611.76,258.16c3.21-.58,4.82,1.8,7.75,1.92,18.08.74,36.51-1.67,54.98-.06,4.53.39,14,.97,17.82,2.18,1.68.53,1.96,1.68,1.66,3.28-.53,1.65-6.85,2.82-8.77,3.23-10.45,2.27-46.02,8.98-54.69,7.28-2.54-.5-2.55-2.6-6.95-3.05-10.56-1.07-16.89.33-26.3,2.82-6.03,1.6-49.76-6.27-57.91-8.62-1.74-.5-3.52-.77-4.89-2.11l.5-2.56,35.49-3.51c13.74-.7,28.34,1.55,41.3-.8Z"/>
  <path class="st0" d="M454,772v-60.5l1.5-1.5h24c26.1,0,37.52,31.52,22.91,50.91-2.99,3.97-12.05,11.09-16.91,11.09h-31.5ZM466,763h14.5c4.08,0,11.93-6.64,13.71-10.29,3.37-6.91,2.73-20.06-2.21-26.21-6.55-8.16-14.98-4.14-23.74-6.31l-2.26,1.31v41.5Z"/>
  <path class="st0" d="M258.5,737c.5-.1,2.72-1.54,3-2,2.59-6.38-2.47-17.73.5-23.26,2.05-3.82,16.08-.66,20,.27-3.8,6.89-1.46,16.11-1.84,23.82.72.15,1.98,1.17,2.34,1.17h23.5v17h-22.5c-.52,0-4.5,3.09-4.5,3.5v21c-4.87,3.39-12.45.87-18.01.49,1.22-5.99,2.93-20.21-2.42-24.05-3.61-2.59-17.33.12-22.42-1.07-1.03-.64-2.72-14.64-1.14-16.86,6.81-.97,17.19,1.32,23.5,0ZM265.7,736.21c-8.3,2.46-9.88,21.8,6.7,19.71,11.17-1.41,11.44-17.74,1.87-19.68-2.2-.45-6.49-.64-8.57-.03Z"/>
  <path class="st0" d="M524,754.01c.06,5,2.62,9.63,7.71,10.78,11.4,2.59,11.45-8.88,22.29-4.78-1.17,13.21-18.09,16.79-28.68,12.18-22.58-9.83-15.04-48.09,12.08-45.07,13,1.45,21.84,15.17,17.64,27.46l-31.03-.57ZM524,746h21c-.72-13-20.54-13.76-21,0Z"/>
  <path class="st0" d="M687,754h-33c.21,4.62,4.65,9.33,8.97,10.52,9.67,2.67,11.79-7.65,20.97-4.47.8,4.62-.27,6.11-3.47,8.91-12.71,11.11-35.06,3.16-37.38-13.56-5.05-36.42,47.37-38.6,43.91-1.41ZM655,746h19.5c3.03,0-1.13-6.44-2.44-7.56-6.35-5.48-17.92-1.51-17.06,7.56Z"/>
  <path class="st0" d="M365,755l-32-1c.27,8.06,7.25,13,15.05,10.54,2.66-.84,3.69-3.98,6.46-4.53,13.88-2.75,6.55,11.09-4.51,13.49-27.64,5.99-39.98-30.07-17.7-43.7,17.53-10.73,36.15,6.43,32.69,25.2ZM354,746c-2.54-13.84-19.11-15.26-21,0h21Z"/>
  <path class="st0" d="M440.64,733.36c25.33,24.88-18.98,58.69-36.84,30.34-16.07-25.5,17.58-49.26,36.84-30.34ZM431.66,739.34c-1.88-1.88-6.49-3.52-9.15-3.4-14.95.67-14.95,31.42,2.72,28.87,10.81-1.56,13.01-18.89,6.43-25.47Z"/>
  <path class="st0" d="M619.01,759.99l11.46-31.02c2.19-2.32,8.18,1.1,11.53.04l-16.99,42.5c-.74.54-1.6.44-2.45.54-2.93.37-8.43.65-10-2.11l-14.53-40.45c.17-1.9,8.38-.47,10.47-.56l10.52,31.06Z"/>
  <path class="st0" d="M563,711l9.36-.86c1.74.53,1.53,1.92,1.69,3.31,1.54,13.36-.1,33.43-1.04,47.06-.26,3.81.16,7.69,0,11.49h-10.01v-61.01Z"/>
  <path class="st0" d="M372,729.5l1.68-1.4h7.66s2.16,5.88,2.16,5.88c3.99-4.23,7.93-9.08,14.52-6.4l-.03,11.42c-20.23-4.83-13.5,20.06-15.43,32.07l-10.56.94v-42.5Z"/>
  <path class="st0" d="M694,729.5c.76-2.47,7.72-1.26,10.01-1.51l.49,6c3.93-5.08,9.02-7.23,15.5-7l-.94,10.57c-19.74-.88-12.8,20.69-15.5,33.5l-9.56.94v-42.5Z"/>
  <path class="st0" d="M593,728v40.5c0,.27-1.19,3.44-1.62,3.56l-9.38-.06v-42.5c2.64-2.85,7.43-1.05,11-1.5Z"/>
  <polygon class="st0" points="593.01 709.99 593 720 582.1 719.89 582.94 710.44 593.01 709.99"/>
  <path class="st0" d="M259,713.01c2.47,2.28-16.34,14.06-16.98,17.51l-3.02-1.04c3.75-7.62,11.03-15.97,20-16.47Z"/>
  <path class="st0" d="M257.99,777.99c-2.24,2.17-20.7-11.11-17.99-16.99,1.84-.23,3.13,1.04,4.48,2.01,2.27,1.64,8.97,7.8,11.05,9.95,1.51,1.56,2.93,2.46,2.46,5.03Z"/>
  <path class="st0" d="M301.99,761c3.07,3.35-14.13,16.76-17.99,16.99-2.62-2.75,10.9-12.78,13.09-14.4.87-.64,4.2-3.35,4.9-2.59Z"/>
  <path class="st0" d="M297.01,730c.38-8.9-12.18-7.84-13.01-16,1.24-1.23,14.91,8.54,16.05,10.44,1.98,3.32,1.14,6.01-3.04,5.56Z"/>
  <path class="st0" d="M458.71,285.21l45.29.28c4.84,5.48,13.93,27.09,9.91,32.93-1.74,2.53-11.95,3.4-15.37,3.62-10.18.65-23.82.48-34.08,0-2.47-.12-15.61-1.12-16.46-1.54-2.81-1.37-2.25-8.22-1.98-10.99.53-5.48,6.99-23.02,12.7-24.3ZM460,314c-3.71.07-7.6-1.08-9.98,2.5l8.4,2.38,1.46-1.5.12-3.38ZM509.01,314h-9.01c-1.34,5.69,4.19,5.65,8.42,4.09l.59-4.09Z"/>
  <path class="st0" d="M478.73,334.24c6.33-1.15,11.57-.72,10.05,7.02-2.08,10.62-20.34,8.17-15.29-4.28.74-1.49,3.65-2.45,5.25-2.74ZM478.71,337.2c-8.37,2.54,3.29,13.55,6.29,1.33-.58-1.93-4.63-1.84-6.29-1.33Z"/>
  <path class="st0" d="M502.72,328.15c9.54-2.62,11.6,16.23-.76,12.42-6.62-2.04-4.18-11.06.76-12.42Z"/>
  <path class="st0" d="M461.79,339.78c-2.55,3.57-14.97.46-11.28-7.75,1.95-4.34,12.04-5.07,12.44,1.52.05.88-.82,5.76-1.16,6.23Z"/>
  <path d="M466,763v-41.5l2.26-1.31c8.76,2.17,17.19-1.84,23.74,6.31,4.94,6.15,5.59,19.3,2.21,26.21-1.78,3.65-9.63,10.29-13.71,10.29h-14.5Z"/>
  <path d="M265.7,736.21c2.07-.61,6.37-.42,8.57.03,9.57,1.94,9.3,18.27-1.87,19.68-16.58,2.09-15-17.25-6.7-19.71Z"/>
  <path d="M524,746c.46-13.76,20.28-13,21,0h-21Z"/>
  <path d="M655,746c-.85-9.07,10.71-13.04,17.06-7.56,1.31,1.13,5.47,7.56,2.44,7.56h-19.5Z"/>
  <path d="M354,746h-21c1.89-15.26,18.46-13.84,21,0Z"/>
  <path d="M431.66,739.34c6.58,6.58,4.38,23.91-6.43,25.47-17.67,2.55-17.68-28.2-2.72-28.87,2.66-.12,7.28,1.52,9.15,3.4Z"/>
  <path d="M509.01,314l-.59,4.09c-4.23,1.56-9.76,1.59-8.42-4.09h9.01Z"/>
  <path d="M460,314l-.12,3.38-1.46,1.5-8.4-2.38c2.38-3.58,6.27-2.43,9.98-2.5Z"/>
  <path d="M478.71,337.2c1.65-.5,5.71-.6,6.29,1.33-3,12.22-14.65,1.2-6.29-1.33Z"/>
</svg>