<?xml version="1.0" encoding="UTF-8"?>
<svg id="Layer_2" data-name="Layer 2" xmlns="http://www.w3.org/2000/svg" xmlns:xlink="http://www.w3.org/1999/xlink" viewBox="0 0 960 960">
  <defs>
    <style>
      .cls-1, .cls-2 {
        fill: #fff;
      }

      .cls-2 {
        font-family: BritannicBold, 'Britannic Bold';
        font-size: 97.12px;
      }

      .cls-3 {
        fill: url(#linear-gradient);
        stroke: url(#linear-gradient-2);
        stroke-linecap: round;
        stroke-linejoin: round;
        stroke-width: .5px;
      }

      .cls-4 {
        fill: #2563eb;
      }
    </style>
    <linearGradient id="linear-gradient" x1="244.04" y1="496.96" x2="911.43" y2="1164.35" gradientUnits="userSpaceOnUse">
      <stop offset="0" stop-color="#2563eb"/>
      <stop offset=".19" stop-color="#2460e3"/>
      <stop offset=".44" stop-color="#1e55d1"/>
      <stop offset=".72" stop-color="#1a4bb5"/>
      <stop offset="1" stop-color="#1e40af"/>
    </linearGradient>
    <linearGradient id="linear-gradient-2" x1="138" y1="390.92" x2="822" y2="1074.92" gradientUnits="userSpaceOnUse">
      <stop offset="0" stop-color="#2563eb"/>
      <stop offset=".19" stop-color="#235de0"/>
      <stop offset=".51" stop-color="#1d4ed8"/>
      <stop offset=".91" stop-color="#1e40af"/>
      <stop offset="1" stop-color="#1e3a8a"/>
    </linearGradient>
  </defs>
  <path class="cls-3" d="M960,529.27v390.73c0,22.09-17.91,40-40,40H40c-22.09,0-40-17.91-40-40v-390.73h960Z"/>
  <g transform="translate(-150, -222) scale(1.3)">
    <text class="cls-2" transform="translate(314.34 777.02) scale(.9 1)"><tspan x="0" y="0">eroDeliver</tspan></text>
    <g>
      <path class="cls-1" d="M258.98,737.63c.5-.1,2.72-1.54,3-2,2.59-6.38-2.47-17.73.5-23.26,2.05-3.82,16.08-.66,20,.27-3.8,6.89-1.46,16.11-1.84,23.82.72.15,1.98,1.17,2.34,1.17h23.5v17h-22.5c-.52,0-4.5,3.09-4.5,3.5v21c-4.87,3.39-12.45.87-18.01.49,1.22-5.99,2.93-20.21-2.42-24.05-3.61-2.59-17.33.12-22.42-1.07-1.03-.64-2.72-14.64-1.14-16.86,6.81-.97,17.19,1.32,23.5,0h0ZM266.18,736.84c-8.3,2.46-9.88,21.8,6.7,19.71,11.17-1.41,11.44-17.74,1.87-19.68-2.2-.45-6.49-.64-8.57-.03Z"/>
      <path class="cls-1" d="M259.48,713.64c2.47,2.28-16.34,14.06-16.98,17.51l-3.02-1.04c3.75-7.62,11.03-15.97,20-16.47h0Z"/>
      <path class="cls-1" d="M258.47,778.62c-2.24,2.17-20.7-11.11-17.99-16.99,1.84-.23,3.13,1.04,4.48,2.01,2.27,1.64,8.97,7.8,11.05,9.95,1.51,1.56,2.93,2.46,2.46,5.03h0Z"/>
      <path class="cls-1" d="M302.47,761.63c3.07,3.35-14.13,16.76-17.99,16.99-2.62-2.75,10.9-12.78,13.09-14.4.87-.64,4.2-3.35,4.9-2.59h0Z"/>
      <path class="cls-1" d="M297.49,730.63c.38-8.9-12.18-7.84-13.01-16,1.24-1.23,14.91,8.54,16.05,10.44,1.98,3.32,1.14,6.01-3.04,5.56h0Z"/>
    </g>
  </g>
  <g transform="translate(-150, -75) scale(1.3)">
    <path class="cls-4" d="M509.18,242.73c2.47,2.05,8.07,15.54,8.95,15.75l77.67-1c1.5-.35,1.63-5.98,2.43-7.78.75-1.69,2.75-2.86,3.48-4.52,1.02-2.33.28-6.02,2.75-7.25,2.99-.79,6.47-.66,9.55-.53,2.34.1,10.76.94,11.31,2.68l1.26,13.74,3.95,2.22-.02,13.74-6.84,2.36-98.51,15.49c-3.04,1.59-9.35,23.33-14.13,27.87-4.13,3.93-10,1.74-13.94,3.06-2.19.73-1.03,5.04-5.15,5.85-2.19.43-23.33.4-24.84-.11-2.06-.7-1.9-4.06-2.77-5.73-6.54-.57-11.83,1.61-16.07-4.43-3.17-4.51-10.16-25.4-12.55-26.7l-98.46-15.29-6.84-2.36.16-12.73c.58-1.83,3.19-1.03,3.91-2.31,2.15-3.82-.58-14.53,2.71-16.3,2.86-1.54,19.07-1.79,21.28.48,1.69,2.19.63,4.97,1.42,7.58.68,2.25,4.47,7.87,5.54,10.46l76.52,1.49c3.65-.69,7.68-14.6,12.18-16.82,16.07.7,34-1.58,49.85-.23,1.81.15,3.68.09,5.18,1.33h.02ZM459.17,246.65c-5.71,1.28-12.17,18.82-12.7,24.3-.27,2.77-.83,9.62,1.98,10.99.86.42,13.99,1.42,16.46,1.54,10.26.48,23.91.65,34.08,0,3.42-.22,13.64-1.09,15.37-3.62,4.01-5.84-5.07-27.45-9.91-32.93l-45.29-.28h.01ZM503.18,289.59c-4.94,1.36-7.38,10.38-.76,12.42,12.36,3.81,10.31-15.04.76-12.42ZM462.25,301.22c.34-.47,1.21-5.35,1.16-6.23-.4-6.59-10.49-5.87-12.44-1.52-3.69,8.22,8.73,11.32,11.28,7.75ZM479.19,295.68c-1.59.29-4.51,1.25-5.25,2.74-5.05,12.45,13.21,14.9,15.29,4.28,1.52-7.74-3.71-8.17-10.05-7.02h0Z"/>
    <path class="cls-4" d="M265.46,224.45c6.5-.75,12.98-2.35,19.51-3,15.79-1.55,33.1-1.22,49.03-1.05,2.7.03,5.19,1.32,7.95,1.12,2.44-.18,4.52-2.1,6.02-2.04s2.63,1.95,4.94,2.03c12.3.44,26.94-1.67,40.09-1.1,6.33.27,25.96,1.35,30.91,3.09,7.81,2.75-4.14,6.02-7.22,6.67-8.11,1.73-45.85,8.28-51.67,7.21-2.25-.41-4.09-2.4-7.14-2.85-1.72-.25-21.57-.16-22.68.14-1.46.4-2.62,2.14-4.45,2.56-7.76,1.8-49.1-5.46-58.5-8.09-2.46-.69-6.96-1.41-6.79-4.7h0Z"/>
    <path class="cls-4" d="M612.22,219.6c3.21-.58,4.82,1.8,7.75,1.92,18.08.74,36.51-1.67,54.98-.06,4.53.39,14,.97,17.82,2.18,1.68.53,1.96,1.68,1.66,3.28-.53,1.65-6.85,2.82-8.77,3.23-10.45,2.27-46.02,8.98-54.69,7.28-2.54-.5-2.55-2.6-6.95-3.05-10.56-1.07-16.89.33-26.3,2.82-6.03,1.6-49.76-6.27-57.91-8.62-1.74-.5-3.52-.77-4.89-2.11l.5-2.56,35.49-3.51c13.74-.7,28.34,1.55,41.3-.8h.01Z"/>
  </g>
</svg>